<svg xmlns="http://www.w3.org/2000/svg" viewBox="0 0 32 32">
  <!-- Knapsack with Dependencies: a pack plus linked dependency nodes -->
  <rect width="32" height="32" rx="7" fill="#0d6efd"/>
  <!-- knapsack body -->
  <path fill="#ffffff" d="M11 12c0-2 1.4-3.4 3.2-3.7V7.4a1.8 1.8 0 0 1 3.6 0v0.9C19.6 8.6 21 10 21 12v9.2A1.8 1.8 0 0 1 19.2 23h-6.4A1.8 1.8 0 0 1 11 21.2V12z"/>
  <!-- flap / front pocket -->
  <path fill="#0d6efd" d="M13.4 15.5h5.2v3.2a1 1 0 0 1-1 1h-3.2a1 1 0 0 1-1-1v-3.2z"/>
  <!-- dependency nodes + links -->
  <g stroke="#ffc107" stroke-width="1.6" stroke-linecap="round">
    <path d="M6 7l3.2 3.2M26 7l-3.2 3.2M6.5 24.5l3-2.4"/>
  </g>
  <g fill="#ffc107">
    <circle cx="5.4" cy="6.2" r="2.1"/>
    <circle cx="26.6" cy="6.2" r="2.1"/>
    <circle cx="5.6" cy="25.4" r="2.1"/>
  </g>
</svg>
